<?xml version="1.0" standalone="no"?>
<!DOCTYPE svg PUBLIC "-//W3C//DTD SVG 20010904//EN"
 "http://www.w3.org/TR/2001/REC-SVG-20010904/DTD/svg10.dtd">
<svg version="1.0" xmlns="http://www.w3.org/2000/svg"
 width="300.000000pt" height="122.000000pt" viewBox="0 0 300.000000 122.000000"
 preserveAspectRatio="xMidYMid meet">
<metadata>
Created by potrace 1.10, written by Peter Selinger 2001-2011
</metadata>
<g transform="translate(0.000000,122.000000) scale(0.100000,-0.100000)"
fill="#ed1d1d" stroke="none">
<path d="M252 893 c3 -24 7 -28 32 -25 28 4 29 3 23 -32 -6 -35 -5 -36 29 -36
l34 0 0 -60 0 -60 -35 0 c-33 0 -35 -2 -35 -35 0 -19 -4 -35 -10 -35 -5 0 -10
-8 -10 -17 1 -17 1 -17 14 0 8 10 26 17 45 17 26 0 31 -4 31 -25 0 -20 5 -25
25 -25 20 0 25 5 25 25 0 20 -5 25 -25 25 -22 0 -25 4 -25 35 l0 35 60 0 60 0
0 44 c0 24 3 51 6 60 5 14 -4 16 -60 16 l-66 0 0 35 c0 32 -2 35 -30 35 -25 0
-30 4 -30 25 0 21 -5 25 -31 25 -27 0 -30 -3 -27 -27z m203 -133 c9 -15 -4
-50 -19 -50 -8 0 -20 7 -27 16 -11 14 -10 18 6 30 22 17 32 17 40 4z"/>
<path d="M790 908 c0 -7 -24 -96 -54 -198 -30 -102 -57 -198 -60 -215 l-6 -30
20 23 c11 13 25 43 31 65 6 23 26 92 45 152 18 61 36 123 40 138 4 16 13 31
21 34 29 11 32 -12 12 -77 -18 -59 -87 -291 -93 -315 -1 -5 -6 -25 -10 -43 -9
-39 -29 -51 -76 -47 -19 2 -38 4 -42 4 -11 1 -68 190 -68 226 0 30 28 14 44
-25 9 -22 16 -45 16 -52 0 -14 41 -80 47 -74 2 2 -8 50 -23 105 l-27 101 -54
0 -55 0 8 -32 c3 -18 23 -89 44 -158 l37 -125 79 -3 79 -2 38 132 c49 171 113
388 122 411 6 15 0 17 -54 17 -42 0 -61 -4 -61 -12z"/>
<path d="M370 891 c0 -10 9 -21 19 -24 24 -6 31 0 31 25 0 13 -7 18 -25 18
-18 0 -25 -5 -25 -19z"/>
<path d="M260 761 c0 -6 5 -11 10 -11 6 0 9 -5 8 -12 -2 -6 5 -14 15 -16 12
-2 17 3 17 17 0 12 -4 21 -9 21 -5 0 -16 3 -25 6 -9 3 -16 1 -16 -5z"/>
<path d="M1510 654 c0 -29 3 -35 16 -30 9 3 19 6 24 6 4 0 13 14 19 30 10 30
9 30 -25 30 -32 0 -34 -2 -34 -36z"/>
<path d="M1620 525 l0 -165 35 0 35 0 0 165 0 165 -35 0 -35 0 0 -165z"/>
<path d="M1730 660 c0 -25 4 -30 24 -30 18 0 27 8 35 30 10 30 9 30 -25 30
-31 0 -34 -2 -34 -30z"/>
<path d="M2150 525 l0 -165 36 0 37 0 -6 45 -7 45 51 0 c49 0 50 0 69 -45 17
-40 23 -45 50 -45 28 0 31 2 24 23 -19 62 -54 127 -68 127 -20 0 -20 11 -2 55
l15 35 -34 0 c-30 0 -35 -4 -47 -42 -11 -31 -20 -43 -34 -43 -18 0 -19 7 -15
88 l3 87 -36 0 -36 0 0 -165z m61 -59 c-18 -22 -32 -10 -29 25 2 29 2 29 22
10 16 -17 17 -23 7 -35z m99 23 c0 -5 -13 -8 -30 -7 -27 2 -28 3 -13 20 12 14
19 15 30 7 7 -6 13 -15 13 -20z"/>
<path d="M1360 517 c0 -90 4 -137 12 -145 7 -7 31 -12 55 -12 42 0 43 0 43 35
0 31 -3 35 -25 35 -24 0 -25 3 -25 55 0 38 4 55 13 55 7 0 18 14 24 30 11 28
10 30 -13 30 -19 0 -24 5 -24 25 0 21 -5 25 -30 25 l-30 0 0 -133z m53 59 c6
-15 -1 -26 -15 -26 -4 0 -8 9 -8 20 0 23 15 27 23 6z"/>
<path d="M856 584 c-11 -29 -7 -199 6 -212 7 -7 45 -12 99 -12 l87 0 11 31 c6
18 11 34 11 36 0 2 -33 3 -72 2 -40 -1 -74 1 -75 5 -2 3 -3 29 -3 56 l0 50 65
0 c51 0 65 -3 65 -15 0 -12 -13 -15 -55 -15 -55 0 -55 0 -55 -30 l0 -31 83 3
82 3 0 70 0 70 -121 3 c-104 2 -123 0 -128 -14z m214 -89 c0 -8 -7 -15 -16
-15 -14 0 -14 3 -4 15 7 8 14 15 16 15 2 0 4 -7 4 -15z"/>
<path d="M1167 593 c-4 -3 -7 -57 -7 -120 l0 -113 34 0 33 0 -5 90 -5 90 52 0
c28 0 51 3 51 8 0 4 3 17 6 30 6 21 4 22 -73 22 -44 0 -83 -3 -86 -7z"/>
<path d="M1510 480 l0 -120 35 0 35 0 0 120 0 120 -35 0 -35 0 0 -120z"/>
<path d="M1730 480 l0 -120 35 0 35 0 0 120 0 120 -35 0 -35 0 0 -120z"/>
<path d="M1846 584 c-3 -9 -6 -63 -6 -120 l0 -104 35 0 35 0 0 90 0 90 65 0
65 0 0 -90 0 -90 34 0 35 0 -1 103 c-1 56 -5 110 -10 120 -8 15 -24 17 -127
17 -99 0 -120 -3 -125 -16z"/>
<path d="M2447 593 c-4 -3 -7 -34 -7 -69 0 -74 0 -74 117 -74 59 0 84 -3 81
-11 -3 -8 -34 -11 -96 -10 -51 1 -96 0 -100 -3 -5 -3 -7 -19 -4 -36 l4 -30
118 0 c139 0 142 2 138 87 l-3 58 -97 3 c-78 2 -98 6 -98 17 0 12 18 15 89 15
l89 0 11 30 10 30 -123 0 c-67 0 -126 -3 -129 -7z"/>
<path d="M874 311 c-13 -13 -1 -31 21 -31 23 0 25 -4 25 -45 0 -42 2 -45 26
-45 26 0 27 1 21 45 -6 43 -5 45 18 45 17 0 25 6 25 18 0 14 -10 17 -66 17
-36 0 -68 -2 -70 -4z"/>
<path d="M1360 254 c0 -62 1 -64 25 -64 22 0 25 4 25 36 0 33 2 35 28 32 24
-3 27 -7 24 -35 -3 -30 -1 -33 22 -33 24 0 26 3 26 44 0 41 -2 45 -30 51 -16
4 -38 4 -49 0 -13 -4 -20 0 -23 12 -3 10 -15 19 -26 20 -20 2 -22 -3 -22 -63z"/>
<path d="M1899 318 c-1 -2 -2 -31 -3 -65 -2 -60 -1 -63 21 -63 22 0 23 4 23
65 0 58 -2 65 -20 65 -11 0 -20 -1 -21 -2z"/>
<path d="M2327 313 c-14 -13 -6 -23 18 -23 16 0 25 6 25 15 0 15 -31 21 -43 8z"/>
<path d="M1062 283 c-20 -4 -23 -9 -20 -46 l3 -42 68 -3 c55 -2 67 0 67 13 0
11 -12 15 -52 17 l-53 1 50 6 c41 5 51 10 53 27 4 30 -43 41 -116 27z m73 -33
c-3 -5 -17 -10 -31 -10 -13 0 -24 5 -24 10 0 6 14 10 31 10 17 0 28 -4 24 -10z"/>
<path d="M1227 283 c-14 -4 -17 -13 -15 -46 l3 -42 58 -3 c46 -2 57 0 57 13 0
11 -11 15 -40 15 -34 0 -40 3 -40 21 0 19 4 21 40 16 35 -4 40 -2 40 14 0 16
-7 19 -42 18 -24 -1 -51 -3 -61 -6z"/>
<path d="M1540 239 c0 -46 2 -49 26 -49 23 0 25 3 22 33 -3 28 0 32 25 35 25
3 27 1 27 -32 0 -32 3 -36 25 -36 22 0 25 4 25 40 0 49 -16 59 -93 58 l-57 -1
0 -48z"/>
<path d="M1737 283 c-14 -4 -17 -13 -15 -46 l3 -42 58 -3 c67 -4 87 8 87 49 0
22 -6 32 -26 39 -26 10 -75 11 -107 3z m83 -43 c0 -16 -7 -20 -30 -20 -18 0
-30 5 -30 13 0 20 10 27 37 27 16 0 23 -6 23 -20z"/>
<path d="M1982 281 c-8 -5 -12 -23 -10 -47 l3 -39 70 0 70 0 3 33 c2 18 -2 40
-9 48 -13 15 -105 20 -127 5z m88 -41 c0 -16 -7 -20 -30 -20 -18 0 -30 5 -30
13 0 20 10 27 37 27 16 0 23 -6 23 -20z"/>
<path d="M2167 283 c-14 -4 -17 -13 -15 -46 l3 -42 50 -6 c28 -3 40 -7 28 -7
-14 -1 -23 -9 -23 -18 0 -12 9 -14 38 -12 l37 3 3 68 3 67 -53 -1 c-29 -1 -61
-3 -71 -6z m81 -45 c3 -14 -3 -18 -27 -18 -25 0 -31 4 -31 21 0 16 5 20 27 17
17 -2 29 -10 31 -20z"/>
<path d="M2422 279 c-19 -7 -23 -15 -20 -46 l3 -38 68 -3 c54 -2 67 0 67 12 0
11 -14 16 -52 19 l-53 3 53 2 c48 2 52 4 52 26 0 13 -7 27 -16 30 -22 9 -75 6
-102 -5z m73 -29 c-3 -5 -17 -10 -31 -10 -13 0 -24 5 -24 10 0 6 14 10 31 10
17 0 28 -4 24 -10z"/>
<path d="M2587 283 c-12 -3 -17 -12 -15 -26 2 -18 12 -23 53 -28 l50 -6 -52
-1 c-40 -2 -53 -6 -53 -17 0 -13 13 -15 73 -13 66 3 72 5 75 26 3 20 0 22 -47
22 -28 0 -51 5 -51 10 0 6 20 10 45 10 33 0 45 4 45 15 0 12 -12 15 -52 14
-29 -1 -61 -3 -71 -6z"/>
<path d="M2327 273 c-4 -3 -7 -24 -7 -45 0 -34 3 -38 25 -38 23 0 25 4 25 45
0 37 -3 45 -18 45 -10 0 -22 -3 -25 -7z"/>
</g>
</svg>
